{
  "title": "Pirates of the Caribbean-4 On Stranger Tides 2011 MULTI 720p Blu",
  "uid": 15897014,
  "size": 1332561869,
  "categoryP": "video",
  "categoryS": "hd___movies",
  "magnet": "?xt=urn:btih:2f1622900527d132cfb848f3555afdf24533c319&amp;dn=Pirates+of+the+Caribbean-4+On+Stranger+Tides+2011+MULTI+720p+Blu&amp;tr=udp%3A%2F%2Ftracker.leechers-paradise.org%3A6969&amp;tr=udp%3A%2F%2Fzer0day.ch%3A1337&amp;tr=udp%3A%2F%2Fopen.demonii.com%3A1337&amp;tr=udp%3A%2F%2Ftracker.coppersurfer.tk%3A6969&amp;tr=udp%3A%2F%2Fexodus.desync.com%3A6969",
  "seeders": 129,
  "leechers": 151,
  "uploader": "SaM",
  "files": 3,
  "time": 1474821210,
  "description": "\n720p Blu-ray Rip x264\r\n\r\nEnglish AAC 5.1 Audio\r\n\r\nHindi AAC 5.1 Audio\r\n\r\nEnglish &amp; French Subtitle\r\n\r\n{ SCREENSHOTS}\r\n \nhttps://extraimago.com/image/w9Wb \nhttps://extraimago.com/image/w9Wh \nhttps://extraimago.com/image/w9Wd \nhttps://extraimago.com/image/w9WI \nhttps://extraimago.com/image/w9Wl \nhttps://extraimago.com/image/w9Wi \nhttps://extraimago.com/image/w9Wm \nhttps://extraimago.com/image/w9WR \nhttps://extraimago.com/image/w9WQ \nhttps://extraimago.com/image/w9WL \nhttps://extraimago.com/image/w9Wy \nhttps://extraimago.com/image/w9Wq \nhttps://extraimago.com/image/w9WS \nhttps://extraimago.com/image/w9WO \nhttps://extraimago.com/image/w9WE \nhttps://extraimago.com/image/w9W1 \nhttps://extraimago.com/image/w9Wc\r\n\r\nSpecs:\r\nSource: French BD50 @ DDR\r\n\r\nFormat : Matroska\r\nFile size : 1.23 GiB\r\nDuration : 2 h 16 min\r\nOverall bit rate : 1 295 kb/s\r\n\r\nVideo\r\nID : 1\r\nFormat : AVC\r\nFormat/Info : Advanced Video Codec\r\nFormat profile :   \r\nFormat settings, CABAC : Yes\r\nFormat settings, ReFrames : 12 frames\r\nCodec ID : V_MPEG4/ISO/AVC\r\nDuration : 2 h 16 min\r\nBit rate : 937 kb/s\r\nWidth : 1 280 pixels\r\nHeight : 534 pixels\r\nDisplay aspect ratio : 2.40:1\r\nFrame rate mode : Constant\r\nFrame rate : 23.976 (24000/1001) FPS\r\nColor space : YUV\r\nChroma subsampling : 4:2:0\r\nBit depth : 8 bits\r\nScan type : Progressive\r\nBits/(Pixel*Frame) : 0.057\r\nStream size : 914 MiB (72%)\r\nLanguage : English\r\nDefault : Yes\r\nForced : No\r\nColor range : Limited\r\nColor primaries : BT.709\r\nTransfer characteristics : BT.709\r\nMatrix coefficients : BT.709\r\n\r\nAudio #1\r\nID : 2\r\nFormat : AAC\r\nFormat/Info : Advanced Audio Codec\r\nFormat profile : LC\r\nCodec ID : A_AAC\r\nDuration : 2 h 16 min\r\nBit rate : 192 kb/s\r\nChannel(s) : 6 channels\r\nChannel positions : Front: L C R, Side: L R, LFE\r\nSampling rate : 48.0 kHz\r\nFrame rate : 46.875 FPS (1024 spf)\r\nCompression mode : Lossy\r\nDelay relative to video : 9 ms\r\nStream size : 187 MiB (15%)\r\nLanguage : Hindi\r\nDefault : Yes\r\nForced : No",
  "parsed": {
    "xt": "urn:btih:2f1622900527d132cfb848f3555afdf24533c319",
    "dn": "Pirates of the Caribbean-4 On Stranger Tides 2011 MULTI 720p Blu",
    "tr": [
      "udp://exodus.desync.com:6969",
      "udp://open.demonii.com:1337",
      "udp://tracker.coppersurfer.tk:6969",
      "udp://tracker.leechers-paradise.org:6969",
      "udp://zer0day.ch:1337"
    ],
    "infoHash": "2f1622900527d132cfb848f3555afdf24533c319",
    "infoHashBuffer": {
      "type": "Buffer",
      "data": [
        47,
        22,
        34,
        144,
        5,
        39,
        209,
        50,
        207,
        184,
        72,
        243,
        85,
        90,
        253,
        242,
        69,
        51,
        195,
        25
      ]
    },
    "name": "Pirates of the Caribbean-4 On Stranger Tides 2011 MULTI 720p Blu",
    "announce": [
      "udp://exodus.desync.com:6969",
      "udp://open.demonii.com:1337",
      "udp://tracker.coppersurfer.tk:6969",
      "udp://tracker.leechers-paradise.org:6969",
      "udp://zer0day.ch:1337"
    ],
    "urlList": []
  },
  "previous": 280,
  "peers": 28,
  "last_updated": "2016-12-24T21:14:20.101Z"
}